<?xml version="1.0"?>
<svg xmlns="http://www.w3.org/2000/svg" version="1.1" width="1268.4671630859375pt" height="261.9074401855469pt" viewBox="-462.56660000427865 -244.01033704322526 1268.4671072995272 261.9074432138797" preserveAspectRatio="none" xmlns:xlink="http://www.w3.org/1999/xlink">
  <defs>
  </defs>
  <path d="M-93.65753936767578,-205.78018188476562 L-74.6375732421875,-204.84996032714844 " stroke="#6E6E6E" fill="none" stroke-width="0.75" stroke-opacity="1" />
  <path d="M-68.94438171386719,-204.57151794433594 L-74.74601745605469,-202.6326141357422 L-74.52912902832031,-207.0673065185547 L-68.94438171386719,-204.57151794433594 " stroke="none" fill="#6E6E6E" fill-rule="evenodd" stroke-width="0" fill-opacity="1" />
  <path d="M-68.94438171386719,-204.57151794433594 L-74.74601745605469,-202.6326141357422 L-74.52912902832031,-207.0673065185547 L-68.94438171386719,-204.57151794433594 " stroke="#6E6E6E" fill="none" stroke-width="0.75" stroke-opacity="1" />
  <path d="M290.8477478027344,-123.55732727050781 L300.14776611328125,-123.55732727050781 " stroke="#6E6E6E" fill="none" stroke-width="0.75" stroke-opacity="1" />
  <path d="M305.8477783203125,-123.55734252929688 L300.14776611328125,-121.33734130859375 L300.14776611328125,-125.77733612060547 L305.8477783203125,-123.55734252929688 " stroke="none" fill="#6E6E6E" fill-rule="evenodd" stroke-width="0" fill-opacity="1" />
  <path d="M305.8477783203125,-123.55734252929688 L300.14776611328125,-121.33734130859375 L300.14776611328125,-125.77733612060547 L305.8477783203125,-123.55734252929688 " stroke="#6E6E6E" fill="none" stroke-width="0.75" stroke-opacity="1" />
  <path d="M55.94507598876953,-183.7613067626953 L210.99496459960938,-136.54586791992188 " stroke="#6E6E6E" fill="none" stroke-width="0.75" stroke-opacity="1" />
  <path d="M216.44775390625,-134.88540649414062 L210.34825134277344,-134.42214965820312 L211.6416778564453,-138.66958618164062 L216.44775390625,-134.88540649414062 " stroke="none" fill="#6E6E6E" fill-rule="evenodd" stroke-width="0" fill-opacity="1" />
  <path d="M216.44775390625,-134.88540649414062 L210.34825134277344,-134.42214965820312 L211.6416778564453,-138.66958618164062 L216.44775390625,-134.88540649414062 " stroke="#6E6E6E" fill="none" stroke-width="0.75" stroke-opacity="1" />
  <path d="M-114.7236328125,-20.960660934448242 L-94.16478729248047,-20.933168411254883 " stroke="#6E6E6E" fill="none" stroke-width="0.75" stroke-opacity="1" />
  <path d="M-88.46479034423828,-20.9255428314209 L-94.16775512695312,-18.713167190551758 L-94.16181945800781,-23.15316390991211 L-88.46479034423828,-20.9255428314209 " stroke="none" fill="#6E6E6E" fill-rule="evenodd" stroke-width="0" fill-opacity="1" />
  <path d="M-88.46479034423828,-20.9255428314209 L-94.16775512695312,-18.713167190551758 L-94.16181945800781,-23.15316390991211 L-88.46479034423828,-20.9255428314209 " stroke="#6E6E6E" fill="none" stroke-width="0.75" stroke-opacity="1" />
  <path d="M-341.5986328125,-69.4096908569336 L-332.29864501953125,-69.4096908569336 " stroke="#6E6E6E" fill="none" stroke-width="0.75" stroke-opacity="1" />
  <path d="M-326.5986633300781,-69.4096908569336 L-332.29864501953125,-67.18968963623047 L-332.29864501953125,-71.62968444824219 L-326.5986633300781,-69.4096908569336 " stroke="none" fill="#6E6E6E" fill-rule="evenodd" stroke-width="0" fill-opacity="1" />
  <path d="M-326.5986633300781,-69.4096908569336 L-332.29864501953125,-67.18968963623047 L-332.29864501953125,-71.62968444824219 L-326.5986633300781,-69.4096908569336 " stroke="#6E6E6E" fill="none" stroke-width="0.75" stroke-opacity="1" />
  <path d="M-256.8724365234375,-57.9199333190918 L-194.49815368652344,-35.886470794677734 " stroke="#6E6E6E" fill="none" stroke-width="0.75" stroke-opacity="1" stroke-dasharray="3,1,1,1,1,1" />
  <path d="M-189.12364196777344,-33.98794174194336 L-195.2375946044922,-33.793235778808594 L-193.7587432861328,-37.97970962524414 L-189.12364196777344,-33.98794174194336 " stroke="none" fill="#6E6E6E" fill-rule="evenodd" stroke-width="0" fill-opacity="1" />
  <path d="M-189.12364196777344,-33.98794174194336 L-195.2375946044922,-33.793235778808594 L-193.7587432861328,-37.97970962524414 L-189.12364196777344,-33.98794174194336 " stroke="#6E6E6E" fill="none" stroke-width="0.75" stroke-opacity="1" />
  <path d="M27.506214141845703,-39.575286865234375 L211.1043243408203,-107.75800323486328 " stroke="#6E6E6E" fill="none" stroke-width="0.75" stroke-opacity="1" />
  <path d="M216.44775390625,-109.74239349365234 L211.877197265625,-105.6768798828125 L210.3314666748047,-109.8391342163086 L216.44775390625,-109.74239349365234 " stroke="none" fill="#6E6E6E" fill-rule="evenodd" stroke-width="0" fill-opacity="1" />
  <path d="M216.44775390625,-109.74239349365234 L211.877197265625,-105.6768798828125 L210.3314666748047,-109.8391342163086 L216.44775390625,-109.74239349365234 " stroke="#6E6E6E" fill="none" stroke-width="0.75" stroke-opacity="1" />
  <path d="M529.6430053710938,-123.12764739990234 L573.6527709960938,-122.7948226928711 " stroke="#6E6E6E" fill="none" stroke-width="0.75" stroke-opacity="1" />
  <path d="M579.3526611328125,-122.75171661376953 L573.6360473632812,-120.57488250732422 L573.6696166992188,-125.01475524902344 L579.3526611328125,-122.75171661376953 " stroke="none" fill="#6E6E6E" fill-rule="evenodd" stroke-width="0" fill-opacity="1" />
  <path d="M579.3526611328125,-122.75171661376953 L573.6360473632812,-120.57488250732422 L573.6696166992188,-125.01475524902344 L579.3526611328125,-122.75171661376953 " stroke="#6E6E6E" fill="none" stroke-width="0.75" stroke-opacity="1" />
  <path d="M380.24481201171875,-123.52056884765625 L449.54296875,-123.45208740234375 " stroke="#6E6E6E" fill="none" stroke-width="0.75" stroke-opacity="1" />
  <path d="M455.24298095703125,-123.44645690917969 L449.5408020019531,-121.23208618164062 L449.5451965332031,-125.67208862304688 L455.24298095703125,-123.44645690917969 " stroke="none" fill="#6E6E6E" fill-rule="evenodd" stroke-width="0" fill-opacity="1" />
  <path d="M455.24298095703125,-123.44645690917969 L449.5408020019531,-121.23208618164062 L449.5451965332031,-125.67208862304688 L455.24298095703125,-123.44645690917969 " stroke="#6E6E6E" fill="none" stroke-width="0.75" stroke-opacity="1" />
  <path d="M653.7172241210938,-122.30451965332031 L716.3812866210938,-122.02198028564453 " stroke="#6E6E6E" fill="none" stroke-width="0.75" stroke-opacity="1" />
  <path d="M722.0811767578125,-121.99627685546875 L716.3712158203125,-119.802001953125 L716.3912353515625,-124.24195861816406 L722.0811767578125,-121.99627685546875 " stroke="none" fill="#6E6E6E" fill-rule="evenodd" stroke-width="0" fill-opacity="1" />
  <path d="M722.0811767578125,-121.99627685546875 L716.3712158203125,-119.802001953125 L716.3912353515625,-124.24195861816406 L722.0811767578125,-121.99627685546875 " stroke="#6E6E6E" fill="none" stroke-width="0.75" stroke-opacity="1" />
  <path d="M-159.55360412597656,-231.29953002929688 L-102.16148376464844,-231.29953002929688 L-102.1614990234375,-231.29953002929688 C-97.46491241455078,-231.29954528808594 -93.65755462646484,-227.49220275878906 -93.65755462646484,-222.7956085205078 C-93.65755462646484,-222.7956085205078 -93.65755462646484,-222.79559326171875 -93.65755462646484,-222.79559326171875 L-93.65754699707031,-222.79559326171875 L-93.65754699707031,-192.40347290039062 L-93.65755462646484,-192.40347290039062 C-93.65755462646484,-187.70687866210938 -97.46488952636719,-183.8995361328125 -102.16148376464844,-183.8995361328125 L-102.16148376464844,-183.8995361328125 L-159.55360412597656,-183.8995361328125 L-159.55360412597656,-183.8995361328125 C-164.2501983642578,-183.8995361328125 -168.0575408935547,-187.70687866210938 -168.0575408935547,-192.40347290039062 L-168.0575408935547,-222.79559326171875 L-168.05755615234375,-222.79559326171875 C-168.05755615234375,-227.4921875 -164.25021362304688,-231.29953002929688 -159.55361938476562,-231.29954528808594 " stroke="none" fill="#F2E279" fill-rule="evenodd" stroke-width="0" fill-opacity="1" />
  <text x="6.419527530670166" y="36.154998779296875" dx="0" dy="0" font-family="Segoe UI" font-size="8.249999754130847pt" fill="#000000" style="text-anchor:start" transform="matrix(0.750000 0.000000 0.000000 0.750000 -168.0575408935547 -231.29953002929688)">GetEricsParcelLa</text>
  <text x="84.71619415283203" y="36.154998779296875" dx="0" dy="0" font-family="Segoe UI" font-size="8.249999754130847pt" fill="#000000" style="text-anchor:start" transform="matrix(0.750000 0.000000 0.000000 0.750000 -168.0575408935547 -231.29953002929688)"> ...</text>
  <path d="M-159.55360412597656,-231.29953002929688 L-102.16148376464844,-231.29953002929688 L-102.1614990234375,-231.29953002929688 C-97.46491241455078,-231.29954528808594 -93.65755462646484,-227.49220275878906 -93.65755462646484,-222.7956085205078 C-93.65755462646484,-222.7956085205078 -93.65755462646484,-222.79559326171875 -93.65755462646484,-222.79559326171875 L-93.65754699707031,-222.79559326171875 L-93.65754699707031,-192.40347290039062 L-93.65755462646484,-192.40347290039062 C-93.65755462646484,-187.70687866210938 -97.46488952636719,-183.8995361328125 -102.16148376464844,-183.8995361328125 L-102.16148376464844,-183.8995361328125 L-159.55360412597656,-183.8995361328125 L-159.55360412597656,-183.8995361328125 C-164.2501983642578,-183.8995361328125 -168.0575408935547,-187.70687866210938 -168.0575408935547,-192.40347290039062 L-168.0575408935547,-222.79559326171875 L-168.05755615234375,-222.79559326171875 C-168.05755615234375,-227.4921875 -164.25021362304688,-231.29953002929688 -159.55361938476562,-231.29954528808594 " stroke="none" fill="none" stroke-width="0.75" stroke-opacity="0" />
  <path d="M66.1367416381836,-201.2765655517578 C66.1367416381836,-182.87747192382812 35.822105407714844,-167.96206665039062 -1.5728683471679688,-167.96205139160156 C-38.96786880493164,-167.96205139160156 -69.28253173828125,-182.87745666503906 -69.28253936767578,-201.27655029296875 C-69.28253936767578,-201.27655029296875 -69.28253936767578,-201.27655029296875 -69.28253936767578,-201.27655029296875 L-69.28254699707031,-201.27651977539062 C-69.28258514404297,-219.6756134033203 -38.967952728271484,-234.59104919433594 -1.5729522705078125,-234.59104919433594 C35.822059631347656,-234.591064453125 66.13671112060547,-219.67567443847656 66.1367416381836,-201.27655029296875 C66.1367416381836,-201.27655029296875 66.1367416381836,-201.27655029296875 66.1367416381836,-201.27655029296875 " stroke="none" fill="#83CC7C" fill-rule="evenodd" stroke-width="0" fill-opacity="1" />
  <text x="67.36619567871094" y="48.97433853149414" dx="0" dy="0" font-family="Segoe UI" font-size="8.249999754130847pt" fill="#000000" style="text-anchor:start" transform="matrix(0.750000 0.000000 0.000000 0.750000 -69.28253936767578 -234.59104919433594)">EricParcel</text>
  <path d="M66.1367416381836,-201.2765655517578 C66.1367416381836,-182.87747192382812 35.822105407714844,-167.96206665039062 -1.5728683471679688,-167.96205139160156 C-38.96786880493164,-167.96205139160156 -69.28253173828125,-182.87745666503906 -69.28253936767578,-201.27655029296875 C-69.28253936767578,-201.27655029296875 -69.28253936767578,-201.27655029296875 -69.28253936767578,-201.27655029296875 L-69.28254699707031,-201.27651977539062 C-69.28258514404297,-219.6756134033203 -38.967952728271484,-234.59104919433594 -1.5729522705078125,-234.59104919433594 C35.822059631347656,-234.591064453125 66.13671112060547,-219.67567443847656 66.1367416381836,-201.27655029296875 C66.1367416381836,-201.27655029296875 66.1367416381836,-201.27655029296875 66.1367416381836,-201.27655029296875 " stroke="none" fill="none" stroke-width="0.75" stroke-opacity="0" />
  <path d="M224.95169067382812,-147.25732421875 L282.34381103515625,-147.25732421875 L282.3437805175781,-147.25732421875 C287.0403747558594,-147.25733947753906 290.84771728515625,-143.4499969482422 290.84771728515625,-138.75340270996094 C290.84771728515625,-138.75340270996094 290.84771728515625,-138.75338745117188 290.84771728515625,-138.75338745117188 L290.8477478027344,-138.75338745117188 L290.8477478027344,-108.36125946044922 L290.84771728515625,-108.36126708984375 C290.84771728515625,-103.6646728515625 287.0404052734375,-99.85733032226562 282.34381103515625,-99.85733032226562 L282.34381103515625,-99.85733032226562 L224.95169067382812,-99.85733032226562 L224.95169067382812,-99.85733032226562 C220.25509643554688,-99.85733032226562 216.44775390625,-103.66466522216797 216.44775390625,-108.36125946044922 L216.44775390625,-138.75338745117188 L216.44773864746094,-138.75338745117188 C216.44773864746094,-143.44998168945312 220.2550811767578,-147.25732421875 224.95167541503906,-147.25733947753906 " stroke="none" fill="#F2E279" fill-rule="evenodd" stroke-width="0" fill-opacity="1" />
  <text x="28.436193466186523" y="36.154998779296875" dx="0" dy="0" font-family="Segoe UI" font-size="8.249999754130847pt" fill="#000000" style="text-anchor:start" transform="matrix(0.750000 0.000000 0.000000 0.750000 216.44775390625 -147.25732421875)">Add Join</text>
  <path d="M224.95169067382812,-147.25732421875 L282.34381103515625,-147.25732421875 L282.3437805175781,-147.25732421875 C287.0403747558594,-147.25733947753906 290.84771728515625,-143.4499969482422 290.84771728515625,-138.75340270996094 C290.84771728515625,-138.75340270996094 290.84771728515625,-138.75338745117188 290.84771728515625,-138.75338745117188 L290.8477478027344,-138.75338745117188 L290.8477478027344,-108.36125946044922 L290.84771728515625,-108.36126708984375 C290.84771728515625,-103.6646728515625 287.0404052734375,-99.85733032226562 282.34381103515625,-99.85733032226562 L282.34381103515625,-99.85733032226562 L224.95169067382812,-99.85733032226562 L224.95169067382812,-99.85733032226562 C220.25509643554688,-99.85733032226562 216.44775390625,-103.66466522216797 216.44775390625,-108.36125946044922 L216.44775390625,-138.75338745117188 L216.44773864746094,-138.75338745117188 C216.44773864746094,-143.44998168945312 220.2550811767578,-147.25732421875 224.95167541503906,-147.25733947753906 " stroke="none" fill="none" stroke-width="0.75" stroke-opacity="0" />
  <path d="M380.24774169921875,-123.55733489990234 C380.24774169921875,-110.46818542480469 363.5927429199219,-99.85733032226562 343.04779052734375,-99.85733032226562 C322.5027770996094,-99.8573226928711 305.8477783203125,-110.46817016601562 305.8477478027344,-123.55731201171875 L305.8477478027344,-123.55731201171875 C305.8477478027344,-136.64646911621094 322.50274658203125,-147.25732421875 343.0477294921875,-147.25732421875 C363.59271240234375,-147.25733947753906 380.24774169921875,-136.64649963378906 380.24774169921875,-123.55732727050781 C380.24774169921875,-123.55732727050781 380.24774169921875,-123.55732727050781 380.24774169921875,-123.55732727050781 " stroke="none" fill="#83CC7C" fill-rule="evenodd" stroke-width="0" fill-opacity="1" />
  <text x="19.84286117553711" y="36.154998779296875" dx="0" dy="0" font-family="Segoe UI" font-size="8.249999754130847pt" fill="#000000" style="text-anchor:start" transform="matrix(0.750000 0.000000 0.000000 0.750000 305.8477783203125 -147.25732421875)">Joined Table</text>
  <path d="M380.24774169921875,-123.55733489990234 C380.24774169921875,-110.46818542480469 363.5927429199219,-99.85733032226562 343.04779052734375,-99.85733032226562 C322.5027770996094,-99.8573226928711 305.8477783203125,-110.46817016601562 305.8477478027344,-123.55731201171875 L305.8477478027344,-123.55731201171875 C305.8477478027344,-136.64646911621094 322.50274658203125,-147.25732421875 343.0477294921875,-147.25732421875 C363.59271240234375,-147.25733947753906 380.24774169921875,-136.64649963378906 380.24774169921875,-123.55732727050781 C380.24774169921875,-123.55732727050781 380.24774169921875,-123.55732727050781 380.24774169921875,-123.55732727050781 " stroke="none" fill="none" stroke-width="0.75" stroke-opacity="0" />
  <path d="M-180.61968994140625,-44.547183990478516 L-123.22756958007812,-44.547183990478516 L-123.22758483886719,-44.547183990478516 C-118.53099822998047,-44.54719161987305 -114.72364044189453,-40.7398567199707 -114.72364044189453,-36.043251037597656 C-114.72364044189453,-36.043251037597656 -114.72364044189453,-36.04324722290039 -114.72364044189453,-36.04324722290039 L-114.7236328125,-36.04324722290039 L-114.7236328125,-5.651119232177734 L-114.72364044189453,-5.651126861572266 C-114.72364044189453,-0.9545326232910156 -118.53097534179688,2.8528099060058594 -123.22756958007812,2.852813720703125 L-123.22756958007812,2.852813720703125 L-180.61968994140625,2.852813720703125 L-180.61968994140625,2.852813720703125 C-185.3162841796875,2.852813720703125 -189.12362670898438,-0.9545249938964844 -189.12362670898438,-5.651119232177734 L-189.12362670898438,-36.04324722290039 L-189.12364196777344,-36.043243408203125 C-189.12364196777344,-40.739837646484375 -185.31629943847656,-44.547183990478516 -180.6197052001953,-44.54718780517578 " stroke="none" fill="#F2E279" fill-rule="evenodd" stroke-width="0" fill-opacity="1" />
  <text x="7.002861022949219" y="36.154998779296875" dx="0" dy="0" font-family="Segoe UI" font-size="8.249999754130847pt" fill="#000000" style="text-anchor:start" transform="matrix(0.750000 0.000000 0.000000 0.750000 -189.12362670898438 -44.547183990478516)">CONVERSION_T</text>
  <text x="84.13285827636719" y="36.154998779296875" dx="0" dy="0" font-family="Segoe UI" font-size="8.249999754130847pt" fill="#000000" style="text-anchor:start" transform="matrix(0.750000 0.000000 0.000000 0.750000 -189.12362670898438 -44.547183990478516)"> ...</text>
  <path d="M-180.61968994140625,-44.547183990478516 L-123.22756958007812,-44.547183990478516 L-123.22758483886719,-44.547183990478516 C-118.53099822998047,-44.54719161987305 -114.72364044189453,-40.7398567199707 -114.72364044189453,-36.043251037597656 C-114.72364044189453,-36.043251037597656 -114.72364044189453,-36.04324722290039 -114.72364044189453,-36.04324722290039 L-114.7236328125,-36.04324722290039 L-114.7236328125,-5.651119232177734 L-114.72364044189453,-5.651126861572266 C-114.72364044189453,-0.9545326232910156 -118.53097534179688,2.8528099060058594 -123.22756958007812,2.852813720703125 L-123.22756958007812,2.852813720703125 L-180.61968994140625,2.852813720703125 L-180.61968994140625,2.852813720703125 C-185.3162841796875,2.852813720703125 -189.12362670898438,-0.9545249938964844 -189.12362670898438,-5.651119232177734 L-189.12362670898438,-36.04324722290039 L-189.12364196777344,-36.043243408203125 C-189.12364196777344,-40.739837646484375 -185.31629943847656,-44.547183990478516 -180.6197052001953,-44.54718780517578 " stroke="none" fill="none" stroke-width="0.75" stroke-opacity="0" />
  <path d="M42.62635803222656,-20.847192764282227 C42.62635803222656,-4.6514434814453125 13.27862548828125,8.477802276611328 -22.923614501953125,8.47780990600586 C-59.12587356567383,8.477813720703125 -88.47362518310547,-4.65142822265625 -88.4736328125,-20.847187042236328 C-88.4736328125,-20.847187042236328 -88.4736328125,-20.847187042236328 -88.4736328125,-20.847187042236328 L-88.47364044189453,-20.847164154052734 C-88.47367095947266,-37.04291534423828 -59.125953674316406,-50.172176361083984 -22.923690795898438,-50.17218780517578 C13.278564453125,-50.17219924926758 42.62632751464844,-37.0429573059082 42.62635803222656,-20.847187042236328 C42.62635803222656,-20.847187042236328 42.62635803222656,-20.847187042236328 42.62635803222656,-20.847187042236328 " stroke="none" fill="#83CC7C" fill-rule="evenodd" stroke-width="0" fill-opacity="1" />
  <text x="49.75286102294922" y="43.654998779296875" dx="0" dy="0" font-family="Segoe UI" font-size="8.249999754130847pt" fill="#000000" style="text-anchor:start" transform="matrix(0.750000 0.000000 0.000000 0.750000 -88.4736328125 -50.17218780517578)">ConvertedTable</text>
  <path d="M42.62635803222656,-20.847192764282227 C42.62635803222656,-4.6514434814453125 13.27862548828125,8.477802276611328 -22.923614501953125,8.47780990600586 C-59.12587356567383,8.477813720703125 -88.47362518310547,-4.65142822265625 -88.4736328125,-20.847187042236328 C-88.4736328125,-20.847187042236328 -88.4736328125,-20.847187042236328 -88.4736328125,-20.847187042236328 L-88.47364044189453,-20.847164154052734 C-88.47367095947266,-37.04291534423828 -59.125953674316406,-50.172176361083984 -22.923690795898438,-50.17218780517578 C13.278564453125,-50.17219924926758 42.62632751464844,-37.0429573059082 42.62635803222656,-20.847187042236328 C42.62635803222656,-20.847187042236328 42.62635803222656,-20.847187042236328 42.62635803222656,-20.847187042236328 " stroke="none" fill="none" stroke-width="0.75" stroke-opacity="0" />
  <path d="M-444.64337158203125,-93.10968780517578 L-350.10260009765625,-93.10968780517578 L-350.10260009765625,-93.10968780517578 C-345.406005859375,-93.10969543457031 -341.5986633300781,-89.30236053466797 -341.5986633300781,-84.60575866699219 C-341.5986633300781,-84.60575866699219 -341.5986633300781,-84.60575103759766 -341.5986633300781,-84.60575103759766 L-341.5986328125,-84.60575103759766 L-341.5986328125,-54.213623046875 L-341.5986633300781,-54.21363067626953 C-341.5986633300781,-49.51703643798828 -345.406005859375,-45.709693908691406 -350.10260009765625,-45.70969009399414 L-350.10260009765625,-45.70969009399414 L-444.64337158203125,-45.70969009399414 L-444.64337158203125,-45.70969009399414 C-449.3399658203125,-45.70969009399414 -453.1473083496094,-49.51702880859375 -453.1473083496094,-54.213623046875 L-453.1473083496094,-84.60575103759766 L-453.1473388671875,-84.60575103759766 C-453.1473388671875,-89.3023452758789 -449.3399963378906,-93.10968780517578 -444.6434020996094,-93.10969543457031 " stroke="none" fill="#F2E279" fill-rule="evenodd" stroke-width="0" fill-opacity="1" />
  <text x="19.08619499206543" y="36.154998779296875" dx="0" dy="0" font-family="Segoe UI" font-size="8.249999754130847pt" fill="#000000" style="text-anchor:start" transform="matrix(0.750000 0.000000 0.000000 0.750000 -453.1473083496094 -93.10968780517578)">DATAIMPORT_REVISED</text>
  <path d="M-444.64337158203125,-93.10968780517578 L-350.10260009765625,-93.10968780517578 L-350.10260009765625,-93.10968780517578 C-345.406005859375,-93.10969543457031 -341.5986633300781,-89.30236053466797 -341.5986633300781,-84.60575866699219 C-341.5986633300781,-84.60575866699219 -341.5986633300781,-84.60575103759766 -341.5986633300781,-84.60575103759766 L-341.5986328125,-84.60575103759766 L-341.5986328125,-54.213623046875 L-341.5986633300781,-54.21363067626953 C-341.5986633300781,-49.51703643798828 -345.406005859375,-45.709693908691406 -350.10260009765625,-45.70969009399414 L-350.10260009765625,-45.70969009399414 L-444.64337158203125,-45.70969009399414 L-444.64337158203125,-45.70969009399414 C-449.3399658203125,-45.70969009399414 -453.1473083496094,-49.51702880859375 -453.1473083496094,-54.213623046875 L-453.1473083496094,-84.60575103759766 L-453.1473388671875,-84.60575103759766 C-453.1473388671875,-89.3023452758789 -449.3399963378906,-93.10968780517578 -444.6434020996094,-93.10969543457031 " stroke="none" fill="none" stroke-width="0.75" stroke-opacity="0" />
  <path d="M-252.1986541748047,-69.40969848632812 C-252.1986541748047,-56.32054901123047 -268.8536682128906,-45.709693908691406 -289.39862060546875,-45.70969009399414 C-309.9436340332031,-45.709686279296875 -326.5986328125,-56.32052993774414 -326.5986633300781,-69.40967559814453 L-326.5986633300781,-69.40967559814453 C-326.5986633300781,-82.49882507324219 -309.94366455078125,-93.10968017578125 -289.398681640625,-93.10968780517578 C-268.85369873046875,-93.10970306396484 -252.19866943359375,-82.49885559082031 -252.1986541748047,-69.4096908569336 C-252.1986541748047,-69.4096908569336 -252.1986541748047,-69.4096908569336 -252.1986541748047,-69.4096908569336 " stroke="none" fill="#83CC7C" fill-rule="evenodd" stroke-width="0" fill-opacity="1" />
  <text x="14.152860641479492" y="36.154998779296875" dx="0" dy="0" font-family="Segoe UI" font-size="8.249999754130847pt" fill="#000000" style="text-anchor:start" transform="matrix(0.750000 0.000000 0.000000 0.750000 -326.5986328125 -93.10968780517578)">DATAIMPORT1</text>
  <path d="M-252.1986541748047,-69.40969848632812 C-252.1986541748047,-56.32054901123047 -268.8536682128906,-45.709693908691406 -289.39862060546875,-45.70969009399414 C-309.9436340332031,-45.709686279296875 -326.5986328125,-56.32052993774414 -326.5986633300781,-69.40967559814453 L-326.5986633300781,-69.40967559814453 C-326.5986633300781,-82.49882507324219 -309.94366455078125,-93.10968017578125 -289.398681640625,-93.10968780517578 C-268.85369873046875,-93.10970306396484 -252.19866943359375,-82.49885559082031 -252.1986541748047,-69.4096908569336 C-252.1986541748047,-69.4096908569336 -252.1986541748047,-69.4096908569336 -252.1986541748047,-69.4096908569336 " stroke="none" fill="none" stroke-width="0.75" stroke-opacity="0" />
  <path d="M463.7469482421875,-147.10968017578125 L521.1390380859375,-147.10968017578125 L521.1390380859375,-147.10968017578125 C525.8356323242188,-147.1096954345703 529.6429443359375,-143.30235290527344 529.6429443359375,-138.6057586669922 C529.6429443359375,-138.6057586669922 529.6429443359375,-138.60574340820312 529.6429443359375,-138.60574340820312 L529.6430053710938,-138.60574340820312 L529.6430053710938,-108.21361541748047 L529.6429443359375,-108.213623046875 C529.6429443359375,-103.51702880859375 525.8356323242188,-99.70968627929688 521.1390380859375,-99.70968627929688 L521.1390380859375,-99.70968627929688 L463.7469482421875,-99.70968627929688 L463.7469482421875,-99.70968627929688 C459.05035400390625,-99.70968627929688 455.2430114746094,-103.51702117919922 455.2430114746094,-108.21361541748047 L455.2430114746094,-138.60574340820312 L455.24298095703125,-138.60574340820312 C455.24298095703125,-143.30233764648438 459.0503234863281,-147.10968017578125 463.7469177246094,-147.1096954345703 " stroke="none" fill="#F2E279" fill-rule="evenodd" stroke-width="0" fill-opacity="1" />
  <text x="24.429527282714844" y="36.154998779296875" dx="0" dy="0" font-family="Segoe UI" font-size="8.249999754130847pt" fill="#000000" style="text-anchor:start" transform="matrix(0.750000 0.000000 0.000000 0.750000 455.2430114746094 -147.10968017578125)">ExportJoin</text>
  <path d="M463.7469482421875,-147.10968017578125 L521.1390380859375,-147.10968017578125 L521.1390380859375,-147.10968017578125 C525.8356323242188,-147.1096954345703 529.6429443359375,-143.30235290527344 529.6429443359375,-138.6057586669922 C529.6429443359375,-138.6057586669922 529.6429443359375,-138.60574340820312 529.6429443359375,-138.60574340820312 L529.6430053710938,-138.60574340820312 L529.6430053710938,-108.21361541748047 L529.6429443359375,-108.213623046875 C529.6429443359375,-103.51702880859375 525.8356323242188,-99.70968627929688 521.1390380859375,-99.70968627929688 L521.1390380859375,-99.70968627929688 L463.7469482421875,-99.70968627929688 L463.7469482421875,-99.70968627929688 C459.05035400390625,-99.70968627929688 455.2430114746094,-103.51702117919922 455.2430114746094,-108.21361541748047 L455.2430114746094,-138.60574340820312 L455.24298095703125,-138.60574340820312 C455.24298095703125,-143.30233764648438 459.0503234863281,-147.10968017578125 463.7469177246094,-147.1096954345703 " stroke="none" fill="none" stroke-width="0.75" stroke-opacity="0" />
  <path d="M653.73046875,-122.4721908569336 C653.73046875,-109.38304138183594 637.075439453125,-98.77218627929688 616.530517578125,-98.77218627929688 C595.9854736328125,-98.77217864990234 579.3305053710938,-109.38302612304688 579.3304443359375,-122.47216796875 L579.3304443359375,-122.47216796875 C579.3304443359375,-135.5613250732422 595.9854736328125,-146.17218017578125 616.5304565429688,-146.17218017578125 C637.075439453125,-146.1721954345703 653.73046875,-135.5613555908203 653.73046875,-122.47218322753906 C653.73046875,-122.47218322753906 653.73046875,-122.47218322753906 653.73046875,-122.47218322753906 " stroke="none" fill="#83CC7C" fill-rule="evenodd" stroke-width="0" fill-opacity="1" />
  <text x="9.106194496154785" y="28.84000015258789" dx="0" dy="0" font-family="Segoe UI" font-size="8.249999754130847pt" fill="#000000" style="text-anchor:start" transform="matrix(0.750000 0.000000 0.000000 0.750000 579.3305053710938 -146.17218017578125)">Output Exported </text>
  <text x="17.766193389892578" y="43.470001220703125" dx="0" dy="0" font-family="Segoe UI" font-size="8.249999754130847pt" fill="#000000" style="text-anchor:start" transform="matrix(0.750000 0.000000 0.000000 0.750000 579.3305053710938 -146.17218017578125)">Feature Class</text>
  <path d="M653.73046875,-122.4721908569336 C653.73046875,-109.38304138183594 637.075439453125,-98.77218627929688 616.530517578125,-98.77218627929688 C595.9854736328125,-98.77217864990234 579.3305053710938,-109.38302612304688 579.3304443359375,-122.47216796875 L579.3304443359375,-122.47216796875 C579.3304443359375,-135.5613250732422 595.9854736328125,-146.17218017578125 616.5304565429688,-146.17218017578125 C637.075439453125,-146.1721954345703 653.73046875,-135.5613555908203 653.73046875,-122.47218322753906 C653.73046875,-122.47218322753906 653.73046875,-122.47218322753906 653.73046875,-122.47218322753906 " stroke="none" fill="none" stroke-width="0.75" stroke-opacity="0" />
  <path d="M730.5851440429688,-145.52854919433594 L787.977294921875,-145.52854919433594 L787.9772338867188,-145.52854919433594 C792.673828125,-145.528564453125 796.481201171875,-141.72122192382812 796.481201171875,-137.02462768554688 C796.481201171875,-137.02462768554688 796.481201171875,-137.0246124267578 796.481201171875,-137.0246124267578 L796.481201171875,-137.0246124267578 L796.481201171875,-106.63248443603516 L796.481201171875,-106.63249206542969 C796.481201171875,-101.93589782714844 792.6738891601562,-98.12855529785156 787.977294921875,-98.12855529785156 L787.977294921875,-98.12855529785156 L730.5851440429688,-98.12855529785156 L730.5851440429688,-98.12855529785156 C725.8885498046875,-98.12855529785156 722.0812377929688,-101.9358901977539 722.0812377929688,-106.63248443603516 L722.0812377929688,-137.0246124267578 L722.0811767578125,-137.0246124267578 C722.0811767578125,-141.72120666503906 725.8885498046875,-145.52854919433594 730.5851440429688,-145.528564453125 " stroke="none" fill="#F2E279" fill-rule="evenodd" stroke-width="0" fill-opacity="1" />
  <text x="8.039527893066406" y="36.154998779296875" dx="0" dy="0" font-family="Segoe UI" font-size="8.249999754130847pt" fill="#000000" style="text-anchor:start" transform="matrix(0.750000 0.000000 0.000000 0.750000 722.0812377929688 -145.52854919433594)">MultipleFieldCalc</text>
  <path d="M730.5851440429688,-145.52854919433594 L787.977294921875,-145.52854919433594 L787.9772338867188,-145.52854919433594 C792.673828125,-145.528564453125 796.481201171875,-141.72122192382812 796.481201171875,-137.02462768554688 C796.481201171875,-137.02462768554688 796.481201171875,-137.0246124267578 796.481201171875,-137.0246124267578 L796.481201171875,-137.0246124267578 L796.481201171875,-106.63248443603516 L796.481201171875,-106.63249206542969 C796.481201171875,-101.93589782714844 792.6738891601562,-98.12855529785156 787.977294921875,-98.12855529785156 L787.977294921875,-98.12855529785156 L730.5851440429688,-98.12855529785156 L730.5851440429688,-98.12855529785156 C725.8885498046875,-98.12855529785156 722.0812377929688,-101.9358901977539 722.0812377929688,-106.63248443603516 L722.0812377929688,-137.0246124267578 L722.0811767578125,-137.0246124267578 C722.0811767578125,-141.72120666503906 725.8885498046875,-145.52854919433594 730.5851440429688,-145.528564453125 " stroke="none" fill="none" stroke-width="0.75" stroke-opacity="0" />
</svg>